<svg xmlns="http://www.w3.org/2000/svg" width="36" height="36" fill="none" viewBox="0 0 36 36"><path stroke="#22B07D" stroke-width="2" d="M11 32H25C27.2091 32 29 30.2091 29 28V11.1915C29 11.0682 28.9544 10.9492 28.872 10.8575L22.8633 4.16594C22.7685 4.06033 22.6332 4 22.4913 4H11C8.79086 4 7 5.79086 7 8V28C7 30.2091 8.79086 32 11 32Z"/><line x1="12" x2="15" y1="14" y2="14" stroke="#22B07D" stroke-linecap="round" stroke-width="2"/><line x1="12" x2="16.667" y1="19" y2="19" stroke="#22B07D" stroke-linecap="round" stroke-width="2"/><line x1="12" x2="20" y1="24" y2="24" stroke="#22B07D" stroke-linecap="round" stroke-width="2"/><path stroke="#22B07D" stroke-linecap="round" stroke-linejoin="round" stroke-width="2" d="M21.1445 4.875V8.64146C21.1445 10.9071 22.8405 12.7436 24.9366 12.75H28.216"/></svg>